<?xml version="1.0" standalone="no"?>
<!DOCTYPE svg PUBLIC "-//W3C//DTD SVG 20010904//EN"
 "http://www.w3.org/TR/2001/REC-SVG-20010904/DTD/svg10.dtd">
<svg version="1.0" xmlns="http://www.w3.org/2000/svg"
 width="485.000000pt" height="485.000000pt" viewBox="0 0 485.000000 485.000000"
 preserveAspectRatio="xMidYMid meet">
<metadata>
Created by potrace 1.14, written by Peter Selinger 2001-2017
</metadata>
<g transform="translate(0.000000,485.000000) scale(0.100000,-0.100000)"
fill="#000000" stroke="none">
<path d="M2170 4822 c-27 -3 -211 -31 -243 -38 -50 -9 -189 -47 -262 -71 -376
-123 -758 -370 -1015 -658 -86 -97 -105 -120 -160 -195 -52 -69 -105 -151
-159 -242 -12 -21 -20 -41 -17 -46 2 -4 21 -9 42 -10 53 -4 158 -27 246 -55
l77 -24 47 71 c216 325 549 603 894 746 41 17 84 35 95 40 27 12 221 69 260
76 16 3 48 9 70 14 22 5 65 11 95 15 30 3 67 8 83 11 l27 6 0 184 0 184 -27
-2 c-16 -2 -39 -4 -53 -6z"/>
<path d="M2592 4644 c3 -179 4 -187 23 -189 198 -20 372 -61 550 -132 106 -42
244 -110 298 -147 21 -14 40 -26 43 -26 7 0 102 -67 174 -124 75 -58 246 -226
312 -306 25 -30 71 -93 103 -140 32 -47 60 -87 61 -89 2 -1 31 6 66 18 62 20
186 46 261 55 21 2 41 6 44 10 7 7 -34 78 -118 201 -162 238 -323 407 -558
586 -103 78 -181 127 -326 205 -134 71 -418 179 -526 199 -13 2 -55 11 -94 19
-79 17 -184 33 -263 41 l-52 6 2 -187z"/>
<path d="M2337 4154 c-1 -1 -39 -5 -84 -8 -46 -4 -89 -9 -95 -11 -7 -2 -31 -7
-52 -10 -60 -8 -188 -42 -268 -71 -68 -24 -277 -122 -288 -134 -3 -3 -30 -21
-60 -39 -127 -77 -306 -238 -404 -361 -28 -36 -54 -66 -58 -68 -5 -2 -8 -10
-8 -17 0 -7 -4 -15 -8 -17 -4 -1 -17 -19 -29 -38 l-21 -35 165 -100 c341 -206
384 -228 478 -250 69 -16 206 -22 261 -11 45 8 115 34 142 52 22 15 67 17 232
14 108 -3 346 -1 455 3 55 1 80 -3 115 -20 152 -72 342 -74 505 -6 22 10 126
69 230 132 105 63 220 132 258 153 37 22 67 42 67 45 0 2 -14 25 -32 51 -184
271 -475 503 -784 626 -90 35 -245 80 -318 92 -21 3 -48 7 -60 10 -57 11 -330
26 -339 18z"/>
<path d="M233 3418 c-19 -24 -82 -192 -118 -317 -68 -238 -90 -402 -90 -676 1
-248 16 -373 76 -608 49 -193 173 -479 282 -651 407 -643 1082 -1058 1824
-1122 l43 -3 -2 186 -3 186 -30 3 c-228 23 -453 86 -663 184 -123 59 -194 101
-326 195 -101 71 -310 269 -382 360 -21 28 -41 52 -44 55 -14 14 -93 134 -132
201 -122 207 -209 448 -253 704 -28 164 -28 501 1 648 35 187 85 354 143 481
17 38 31 72 31 76 0 16 -181 83 -257 95 -21 4 -50 8 -64 11 -15 3 -30 -1 -36
-8z"/>
<path d="M4466 3409 c-101 -21 -216 -66 -216 -85 0 -8 9 -33 21 -56 61 -119
138 -383 155 -528 3 -25 9 -70 14 -100 9 -59 6 -402 -5 -460 -42 -240 -59
-308 -112 -449 -232 -623 -750 -1091 -1393 -1259 -110 -29 -210 -48 -295 -56
l-40 -3 -3 -187 -2 -187 42 6 c24 2 66 8 93 11 85 10 98 12 150 23 573 117
1042 399 1411 846 214 260 398 636 470 960 25 112 42 215 52 305 14 146 6 539
-13 592 -2 7 -6 31 -9 53 -2 22 -10 63 -16 90 -7 28 -14 61 -16 75 -9 46 -66
224 -106 328 -46 117 -33 111 -182 81z"/>
<path d="M3835 3059 c-226 -173 -419 -289 -518 -314 -15 -4 -27 -10 -27 -14 0
-13 88 -60 144 -75 100 -29 133 -86 79 -138 -30 -29 -139 -81 -194 -93 -82
-19 -173 -1 -291 55 -33 16 -61 24 -69 19 -7 -4 -14 -31 -16 -60 -5 -90 -31
-168 -117 -349 -138 -288 -151 -356 -97 -523 31 -97 40 -167 21 -167 -9 0 -26
-52 -37 -109 -9 -51 -95 -127 -166 -148 -26 -8 -87 -11 -157 -10 -133 3 -165
14 -233 83 -36 36 -47 56 -61 111 -9 38 -21 69 -26 71 -18 6 -11 77 15 152 14
40 28 94 31 119 3 25 7 47 9 49 5 5 -24 123 -42 172 -9 25 -49 113 -88 195
-95 197 -108 236 -120 359 -2 27 -10 53 -16 57 -6 3 -43 -8 -83 -26 -91 -42
-126 -51 -208 -54 -57 -2 -78 3 -152 34 -95 41 -136 75 -136 112 0 36 49 77
109 91 52 12 131 55 131 71 0 6 -10 13 -22 17 -43 12 -190 85 -246 122 -56 35
-225 155 -249 176 -41 36 -144 109 -147 105 -2 -2 -20 -44 -39 -94 -34 -85
-80 -249 -92 -325 -19 -130 -23 -183 -20 -325 4 -157 6 -190 18 -250 4 -16 9
-46 12 -65 28 -172 126 -411 243 -590 71 -110 108 -155 212 -263 671 -697
1793 -694 2465 5 141 146 233 278 315 450 111 236 160 438 166 698 2 91 -1
197 -6 235 -6 39 -13 88 -16 110 -15 117 -119 426 -141 424 -4 0 -66 -45 -138
-100z"/>
</g>
</svg>
