<svg width="378" height="378" viewBox="0 0 378 378" fill="none" xmlns="http://www.w3.org/2000/svg">
<mask id="mask0_413_280" style="mask-type:alpha" maskUnits="userSpaceOnUse" x="0" y="0" width="378" height="378">
<path fill-rule="evenodd" clip-rule="evenodd" d="M378 0H0V377.221H378V0ZM328.713 104.546C341.826 100.517 358.133 97.7918 371.599 101.464L371.586 101.467C373.358 102.652 375.364 104.787 374.905 107.39C374.773 107.606 374.641 107.834 374.506 108.066C373.677 109.494 372.736 111.115 371.009 111.421C341.648 107.017 320.528 123.104 299.371 139.218C285.794 149.56 272.202 159.912 256.408 164.869C256.331 165.383 258.694 167.357 261.256 168.74C263.053 169.735 265.122 170.296 267.134 170.841C271.513 172.027 275.617 173.138 276.023 178.498C274.704 182.672 270.163 184.572 266.214 186.225C265.563 186.497 264.929 186.763 264.328 187.031C254.282 192.724 242.232 187.982 233.138 183.359C232.076 182.291 230.302 182.883 229.473 183.952C229.871 196.245 224.81 206.229 219.744 216.221C215.775 224.05 211.803 231.884 210.453 240.839C209.401 246.465 211.053 251.212 212.719 256.001C213.86 259.283 215.009 262.584 215.297 266.2C215.327 267.445 214.977 267.904 214.456 268.589C213.603 269.709 212.292 271.43 211.434 278.17C210.848 280.145 205.923 285.677 201.474 288.006C197.366 289.63 192.605 290.103 187.772 289.976C182.938 290.103 178.177 289.63 174.069 288.006C169.619 285.677 164.697 280.145 164.105 278.17C163.249 271.429 161.939 269.708 161.087 268.589C160.566 267.904 160.216 267.445 160.245 266.2C160.534 262.584 161.682 259.282 162.824 256C164.489 251.212 166.141 246.464 165.089 240.839C163.739 231.884 159.767 224.049 155.797 216.219C150.731 206.227 145.67 196.244 146.067 183.952C145.242 182.883 143.469 182.291 142.406 183.359C133.312 187.982 121.259 192.724 111.217 187.031C110.616 186.763 109.982 186.498 109.332 186.226C105.381 184.573 100.839 182.672 99.5214 178.498C99.9252 173.137 104.029 172.026 108.409 170.84C110.421 170.296 112.491 169.735 114.288 168.74C116.849 167.357 119.212 165.383 119.134 164.869C103.34 159.912 89.7486 149.56 76.1725 139.219C55.0164 123.104 33.8968 107.017 4.53485 111.421C2.80999 111.115 1.86801 109.497 1.0372 108.07C0.900985 107.836 0.767756 107.607 0.634555 107.39C0.161745 104.784 2.17224 102.649 3.94421 101.464C17.4115 97.7918 33.717 100.517 46.8308 104.546C63.1456 109.796 77.9049 118.868 92.6462 127.928C100.535 132.777 108.419 137.623 116.534 141.878C128.821 147.092 145.716 148.159 157.055 141.048C159.771 139.113 164.697 140.495 164.697 140.495C166.271 139.311 168.035 138.86 170.172 139.625C173.112 141.777 176.116 141.092 179.167 140.396C182 139.75 184.872 139.095 187.772 140.693C190.671 139.095 193.544 139.75 196.376 140.396C199.427 141.092 202.432 141.777 205.373 139.625C207.508 138.86 209.273 139.311 210.848 140.495C210.848 140.495 215.77 139.113 218.486 141.048C229.827 148.159 246.723 147.092 259.012 141.878C267.123 137.624 275.005 132.779 282.892 127.931C297.635 118.87 312.397 109.797 328.713 104.546Z" fill="#C4C4C4"/>
</mask>
<g mask="url(#mask0_413_280)">
<path fill-rule="evenodd" clip-rule="evenodd" d="M175.361 1.63337C78.2379 8.43008 1.55872 89.3718 1.55872 188.223C1.55872 287.074 78.2379 368.016 175.361 374.812V345.89C94.1811 339.16 30.3958 271.14 30.3958 188.223C30.3958 105.306 94.1811 37.2861 175.361 30.5554V1.63337ZM201.86 30.5554C283.039 37.286 346.825 105.306 346.825 188.223C346.825 271.14 283.039 339.16 201.86 345.89V374.812C298.983 368.016 375.662 287.074 375.662 188.223C375.662 89.3718 298.983 8.43 201.86 1.63336V30.5554Z" fill="white"/>
<circle cx="188.61" cy="188.223" r="134.054" fill="white"/>
</g>
</svg>
